<?xml version="1.0" encoding="utf-8"?>
<!-- Generator: Adobe Illustrator 26.0.0, SVG Export Plug-In . SVG Version: 6.00 Build 0)  -->
<svg version="1.1" id="Capa_1" xmlns="http://www.w3.org/2000/svg" xmlns:xlink="http://www.w3.org/1999/xlink" x="0px" y="0px"
	 viewBox="0 0 512 512" style="enable-background:new 0 0 512 512;" xml:space="preserve">
<style type="text/css">
	.st0{fill:#FFFFFF;}
</style>
<g>
	<path class="st0" d="M492.8,233.8c-32.4-30.5-81.8-121.9-233.4-121.9S63.8,185.4,16.2,230.8C10.9,235.9,1.9,246.6,0,254
		c0,1.4,10.3,15.1,15,19.2c9.8,8.5,109,130.6,248.3,130.6S468,310.6,497,280c6.2-6.6,15-24.7,15-26
		C511.4,252.1,504.1,244.4,492.8,233.8z M300.9,349.5c-6.9,2.9-13.9,5.2-21.2,6.7c-6.9,1.4-13.8,2.2-19.7,1.8
		c-49.3,0-91.4-30.4-103.5-74.1c-13.3-48,8-96.3,52.5-118.8c42.1-21.4,94.5-13.4,126.6,20C387.2,238.7,366.6,321.8,300.9,349.5z"/>
	<path class="st0" d="M259.3,190.6c-36.1,0.1-67.6,29.9-67.1,65.1c0.6,41.7,33.8,67,67.7,65.8c37.3,0,66.6-28.7,66.8-65.4
		C326.8,220.8,295.6,190.5,259.3,190.6z"/>
</g>
</svg>
